<?xml version="1.0" encoding="utf-8"?>
<!-- Generator: Adobe Illustrator 18.1.0, SVG Export Plug-In . SVG Version: 6.00 Build 0)  -->
<svg version="1.1" id="Calque_1" xmlns="http://www.w3.org/2000/svg" xmlns:xlink="http://www.w3.org/1999/xlink" x="0px" y="0px"
	 viewBox="-703 285 512 512" enable-background="new -703 285 512 512" xml:space="preserve">
<path fill="#FFFFFF" d="M-452.2,302.4c69.3,0,126,56.2,126,126c0,69.3-56.7,126-126,126c-69.8,0-126-56.7-126-126
	C-578.2,358.6-522,302.4-452.2,302.4L-452.2,302.4L-452.2,302.4z M-325.5,615.1h17.4v33.8h33.8v17.4h-33.8V700h-17.4v-33.8h-33.8
	v-17.4h33.8V615.1z M-552.7,548.6c-54.3,0-98.6,44.3-98.6,99.1v131.8h408.6V647.8c0-54.8-44.3-99.1-99.1-99.1h-25.8
	c-23.2,17.4-52.2,28-83.3,28c-31.6,0-60.6-10.5-83.8-28H-552.7L-552.7,548.6z"/>
</svg>
