<?xml version="1.0" encoding="utf-8"?>
<!-- Generator: Adobe Illustrator 18.1.0, SVG Export Plug-In . SVG Version: 6.00 Build 0)  -->
<svg version="1.1" id="Layer_1" xmlns="http://www.w3.org/2000/svg" xmlns:xlink="http://www.w3.org/1999/xlink" x="0px" y="0px"
	 viewBox="-703 285 512 512" enable-background="new -703 285 512 512" xml:space="preserve">
<path fill="#FFFFFF" d="M-543,381v304.6c-17-10.2-39.3-16.6-64-16.6c-53,0-96,28.7-96,64s43,64,96,64s96-28.7,96-64V541l288-96
	v144.6c-17-10.2-39.3-16.6-64-16.6c-53,0-96,28.7-96,64s43,64,96,64s96-28.7,96-64V285L-543,381z M-511,509v-72.7l288-78.6V413
	L-511,509z"/>
</svg>
