<?xml version="1.0" encoding="utf-8"?>
<!-- Generator: Adobe Illustrator 18.1.0, SVG Export Plug-In . SVG Version: 6.00 Build 0)  -->
<svg version="1.1" id="Layer_1" xmlns="http://www.w3.org/2000/svg" xmlns:xlink="http://www.w3.org/1999/xlink" x="0px" y="0px"
	 viewBox="-703 285 512 512" enable-background="new -703 285 512 512" xml:space="preserve">
<rect x="-689" y="719" fill="#FFFFFF" width="150" height="45"/>
<rect x="-689" y="619" fill="#FFFFFF" width="150" height="45"/>
<rect x="-689" y="519" fill="#FFFFFF" width="270" height="45"/>
<rect x="-689" y="419" fill="#FFFFFF" width="270" height="45"/>
<rect x="-689" y="319" fill="#FFFFFF" width="270" height="45"/>
<path fill="#FFFFFF" d="M-449.2,756.3c-20.5-5.2-39.5-20.2-44.9-41.3c-5.6-20.1,1.7-41.7,14.4-57.6c23.5-29.4,63.8-44.5,100.8-37.5
	c0.3-98.4,0-196.8,0.2-295.2c8.9,13.1,18.5,26,30.6,36.5c25.6,23.2,57.4,37.9,83.7,60.2c22.7,19.3,42.4,43.3,52.4,71.6
	c7.4,20.3,8.9,42.6,4.6,63.7c-5.6,27.1-22.3,42.4-40.2,63.3c6.1-25.2,13.1-42.3,5.3-67.6c-5.2-17.6-16.6-32.8-30.8-44.2
	c-16.2-13.1-35.2-22.1-54.3-30.2c-0.2,65,0,130.1-0.1,195.1c1,22.4-10.5,43.9-26.9,58.7C-379.4,754.5-416.2,764.8-449.2,756.3"/>
</svg>
