<?xml version="1.0" encoding="utf-8"?>
<!-- Generator: Adobe Illustrator 18.1.0, SVG Export Plug-In . SVG Version: 6.00 Build 0)  -->
<svg version="1.1" id="Calque_1" xmlns="http://www.w3.org/2000/svg" xmlns:xlink="http://www.w3.org/1999/xlink" x="0px" y="0px"
	 viewBox="0 0 64.5 55.9" enable-background="new 0 0 64.5 55.9" xml:space="preserve">
<path id="path-1" d="M46.1,15.2v6.2l18.4-10.7L46.1,0v6.5C41.5,7,37.8,9.8,34.5,13c-5.3,5.4-9.9,12.9-14.6,18.7
	c-4.5,6-9.1,9.6-11.5,9.3H0v8.4h8.5c5.3-0.1,9.4-3.1,13-6.6c5.3-5.4,10-12.6,14.6-18.5C39.9,19.3,43.6,16.1,46.1,15.2L46.1,15.2z
	 M15.5,19.1c1.8,1.8,3.7,4.2,5.7,6.7c0.5-0.6,1-1.3,1.4-1.9c1.3-1.7,2.6-3.3,3.9-5.1c-4.9-6.1-10.1-12.1-18-12.4H0v8.4h8.5
	C10.1,14.8,12.6,16.1,15.5,19.1L15.5,19.1z M46.1,40.6c-1.5-0.5-3.4-1.7-5.5-3.9c-1.8-1.8-3.7-4.2-5.7-6.7c-0.5,0.6-0.9,1.3-1.4,1.9
	c-1.3,1.7-2.6,3.5-4,5.2c4.6,5.7,9.4,11.3,16.6,12.2v6.6l18.3-10.7L46.1,34.4V40.6L46.1,40.6z"/>
</svg>
