<?xml version="1.0" encoding="utf-8"?>
<!-- Generator: Adobe Illustrator 19.0.0, SVG Export Plug-In . SVG Version: 6.00 Build 0)  -->
<svg version="1.1" id="Calque_1" xmlns="http://www.w3.org/2000/svg" xmlns:xlink="http://www.w3.org/1999/xlink" x="0px" y="0px"
	 viewBox="-176 307.9 241.7 333.9" style="enable-background:new -176 307.9 241.7 333.9;" xml:space="preserve">
<style type="text/css">
	.st0{fill:#F28F1A;}
</style>
<g id="Aceuil_xA0_Image_1_">
</g>
<g id="Ici_on_imagine_que_le_titre_en_ecoute_est_assigné_à_l_x2019_emobulle_1_">
	<path class="st0" d="M-124,332.8l35.1,62.3c0,0,16.9,22.6,32.8,21c15.9-1.3,31.3-13.1,45.4-44.1s22.6-39.2,22.6-39.2H-5.5
		c0,0-20.3,51-22.8,55.6C-31.1,393-42.9,411.8-56,410c-13.1-1.8-24.9-11.8-29.5-24.9c-4.6-13.1-24.4-52.3-24.4-52.3H-124z"/>
	<path class="st0" d="M87.6,640.3L13.2,538.4c0,0-35.6-36.7-69.5-34.4s-66.4,21.5-96.2,72.1c-29.7,50.5-47.4,64.4-47.4,64.4h36.7
		c0,0,42.6-83.6,48.5-91.3c5.9-7.7,30.8-38.2,58.5-35.1c27.7,3.1,52.6,19.2,62.3,40.5c10,21.5,51.5,85.9,51.5,85.9h30V640.3z"/>
</g>
</svg>
