<?xml version="1.0" encoding="utf-8"?>
<!-- Generator: Adobe Illustrator 18.1.0, SVG Export Plug-In . SVG Version: 6.00 Build 0)  -->
<svg version="1.1" id="Calque_1" xmlns="http://www.w3.org/2000/svg" xmlns:xlink="http://www.w3.org/1999/xlink" x="0px" y="0px"
	 viewBox="0 0 89.5 89.7" enable-background="new 0 0 89.5 89.7" xml:space="preserve">
<g>
	<g>
		<path fill="#348298" d="M81.8,45.9c-15,33.5-39.5,23.6-39.5,23.6c-19.1-6.3-20-21.5-20-21.5c-2.9-22,12.3-29,12.3-29
			c8.8-3.5,10.5,0.9,10.5,0.9c1.9,3.6-2.4,6.4-2.4,6.4c-4.9,2.8-7.5,8.6-7.5,8.6C29.8,52.1,46.1,59,46.1,59C65,66.2,75,43.3,75,43.3
			c8.2-17.2-1.5-31.5-1.6-31.8C65.6,5.1,55.6,1.2,44.7,1.2C20,1.2,0,21.2,0,45.9c0,24.7,20,44.8,44.8,44.8S81.8,45.9,81.8,45.9z"/>
		<path fill="#26C3F0" d="M42.7,26.3c-5.7,3.3-7.5,8.6-7.5,8.6C29.8,52.1,46.1,59,46.1,59C65,66.2,75,43.3,75,43.3
			c10.7-19.1-1.5-31.5-1.6-31.8C61.1-0.2,45.7,1.1,44.8,1.2c0,0,0,0-0.1,0.1c11.5,0.4,14.9,15.2-0.2,23.7L42.7,26.3z"/>
	</g>
	<path fill="#26C3F0" d="M83.1,22.9c3.9,11.2-1.2,23-1.2,23C68.6,78.9,33,73.8,33,73.8C3.5,69.5,0.4,39.6,0.4,39.6
		s-6.2,41.5,35.8,50.2c30.9,6.4,54-22.3,53.3-43.9C89.2,37.5,88.6,32.4,83.1,22.9z"/>
</g>
</svg>
