<?xml version="1.0" encoding="utf-8"?>
<!-- Generator: Adobe Illustrator 18.1.0, SVG Export Plug-In . SVG Version: 6.00 Build 0)  -->
<svg version="1.1" id="Calque_1" xmlns="http://www.w3.org/2000/svg" xmlns:xlink="http://www.w3.org/1999/xlink" x="0px" y="0px"
	 viewBox="0 0 89.5 89.7" enable-background="new 0 0 89.5 89.7" xml:space="preserve">
<g>
	<path fill="#313537" d="M81.5,45.9C66.5,79.4,42,69.5,42,69.5C22.9,63.3,22,48,22,48c-2.9-22,12.3-29,12.3-29
		c8.8-3.5,10.5,0.9,10.5,0.9c1.9,3.6-2.4,6.4-2.4,6.4c-4.9,2.8-7.5,8.6-7.5,8.6C29.5,52.1,45.7,59,45.7,59
		c18.9,7.1,28.9-15.8,28.9-15.8C82.8,26,73.2,11.7,73,11.5C65.3,5.1,55.3,1.2,44.4,1.2c-24.7,0-44.8,20-44.8,44.8
		c0,24.7,20,44.8,44.8,44.8S81.5,45.9,81.5,45.9z"/>
	<path fill="#676B6C" d="M82.7,22.9c3.9,11.2-1.2,23-1.2,23c-13.3,33-48.9,27.9-48.9,27.9C3.1,69.5,0.1,39.6,0.1,39.6
		s-6.2,41.5,35.8,50.2c30.9,6.4,54-22.3,53.3-43.9C88.8,37.5,88.2,32.4,82.7,22.9z"/>
	<path fill="#676B6C" d="M42.4,26.3c-5.7,3.3-7.5,8.6-7.5,8.6C29.5,52.1,45.7,59,45.7,59c18.9,7.1,28.9-15.8,28.9-15.8
		c10.7-19.1-1.5-31.5-1.6-31.8C60.8-0.2,45.4,1.1,44.4,1.2c0,0,0,0-0.1,0.1c11.5,0.4,14.9,15.2-0.2,23.7L42.4,26.3z"/>
</g>
</svg>
