<?xml version="1.0" encoding="utf-8"?>
<!-- Generator: Adobe Illustrator 18.1.0, SVG Export Plug-In . SVG Version: 6.00 Build 0)  -->
<svg version="1.1" id="Calque_1" xmlns="http://www.w3.org/2000/svg" xmlns:xlink="http://www.w3.org/1999/xlink" x="0px" y="0px"
	 viewBox="0 0 89.5 89.7" enable-background="new 0 0 89.5 89.7" xml:space="preserve">
<g>
	<path fill="#101418" d="M82.3,45.4C67.3,78.9,42.8,69,42.8,69c-19.1-6.2-20-21.5-20-21.5c-2.9-22,12.3-29,12.3-29
		c8.8-3.5,10.5,0.9,10.5,0.9c1.9,3.6-2.4,6.4-2.4,6.4c-4.9,2.8-7.5,8.6-7.5,8.6c-5.4,17.2,10.9,24.1,10.9,24.1
		c18.9,7.1,28.9-15.8,28.9-15.8c8.2-17.2-1.5-31.5-1.6-31.8C66,4.5,56.1,0.6,45.2,0.6c-24.7,0-44.8,20-44.8,44.8
		c0,24.7,20,44.7,44.8,44.7S82.3,45.4,82.3,45.4z"/>
	<path fill="#101418" d="M83.5,22.3c3.9,11.2-1.2,23-1.2,23C69,78.4,33.4,73.2,33.4,73.2C3.9,69,0.8,39.1,0.8,39.1
		s-6.2,41.5,35.8,50.2c30.9,6.4,54-22.3,53.3-43.9C89.6,37,89,31.9,83.5,22.3z"/>
	<path opacity="0.32" fill="#101418" d="M43.2,25.7c-5.7,3.3-7.5,8.6-7.5,8.6c-5.4,17.2,10.9,24.1,10.9,24.1
		c18.9,7.1,28.9-15.8,28.9-15.8c10.7-19.1-1.5-31.5-1.6-31.8C61.6-0.7,46.2,0.5,45.2,0.6c0,0,0,0-0.1,0.1
		C56.6,1.1,60,15.9,44.9,24.4L43.2,25.7z"/>
</g>
</svg>
