<?xml version="1.0" encoding="utf-8"?>
<!-- Generator: Adobe Illustrator 18.1.0, SVG Export Plug-In . SVG Version: 6.00 Build 0)  -->
<svg version="1.1" id="Calque_1" xmlns="http://www.w3.org/2000/svg" xmlns:xlink="http://www.w3.org/1999/xlink" x="0px" y="0px"
	 viewBox="0 0 89.5 89.7" enable-background="new 0 0 89.5 89.7" xml:space="preserve">
<g>
	<path fill="#342F59" d="M82.1,45.5C67.1,79,42.6,69.2,42.6,69.2c-19.1-6.3-20-21.5-20-21.5c-2.9-22,12.3-29,12.3-29
		c8.8-3.5,10.5,0.9,10.5,0.9c1.9,3.6-2.4,6.4-2.4,6.4c-4.9,2.8-7.5,8.6-7.5,8.6c-5.4,17.2,10.9,24.1,10.9,24.1
		c18.9,7.1,28.9-15.8,28.9-15.8c8.2-17.2-1.5-31.5-1.6-31.8C65.9,4.7,55.9,0.8,45,0.8c-24.7,0-44.8,20-44.8,44.8
		c0,24.7,20,44.8,44.8,44.8S82.1,45.5,82.1,45.5z"/>
	<path fill="#6251A1" d="M83.3,22.5c3.9,11.2-1.2,23-1.2,23c-13.3,33-48.9,27.9-48.9,27.9C3.7,69.2,0.7,39.3,0.7,39.3
		s-6.2,41.5,35.8,50.2c30.9,6.4,54-22.3,53.3-43.9C89.4,37.1,88.9,32,83.3,22.5z"/>
	<path fill="#6251A1" d="M43,25.9c-5.7,3.3-7.5,8.6-7.5,8.6c-5.4,17.2,10.9,24.1,10.9,24.1c18.9,7.1,28.9-15.8,28.9-15.8
		c10.7-19.1-1.5-31.5-1.6-31.8C61.4-0.6,46,0.7,45,0.8c0,0,0,0-0.1,0.1C56.5,1.3,59.9,16,44.7,24.5L43,25.9z"/>
</g>
</svg>
