<?xml version="1.0" encoding="utf-8"?>
<!-- Generator: Adobe Illustrator 18.1.0, SVG Export Plug-In . SVG Version: 6.00 Build 0)  -->
<svg version="1.1" id="Calque_1" xmlns="http://www.w3.org/2000/svg" xmlns:xlink="http://www.w3.org/1999/xlink" x="0px" y="0px"
	 viewBox="0 0 67.3 55.6" enable-background="new 0 0 67.3 55.6" xml:space="preserve">
<g>
	<path d="M31.9,3.5c0-1.9-1.5-3.5-3.5-3.5c-1.3,0-2.4,0.7-3,1.7l0,0L14,21.6c-0.2,0.2-0.3,0.5-0.4,0.7l0,0l0,0
		c-0.2,0.4-0.3,0.8-0.3,1.3c0,1.9,1.5,3.5,3.5,3.5c1.2,0,2.2-0.6,2.9-1.5l0,0L31.4,5.2l0,0C31.7,4.7,31.9,4.1,31.9,3.5z"/>
	<path d="M34.8,3.5c0-1.9,1.5-3.5,3.5-3.5c1.3,0,2.4,0.7,3,1.7l0,0l11.5,19.9c0.2,0.2,0.3,0.5,0.4,0.7l0,0l0,0
		c0.2,0.4,0.3,0.8,0.3,1.3c0,1.9-1.5,3.5-3.5,3.5c-1.2,0-2.2-0.6-2.9-1.5l0,0L35.3,5.2l0,0C35,4.7,34.8,4.1,34.8,3.5z"/>
	<path d="M63.8,21.6H55c0.3,0.6,0.4,1.3,0.4,2.1c0,3-2.4,5.5-5.5,5.5c-1.9,0-3.5-1-4.5-2.4l-3-5.1H24.3l-3,5.1
		c-1,1.5-2.6,2.4-4.5,2.4c-3,0-5.5-2.4-5.5-5.5c0-0.7,0.1-1.4,0.4-2.1H3.5C1.5,21.6,0,23.1,0,25s1.5,3.5,3.5,3.5h1.8l6.8,25.5h0
		c0.3,0.9,1.1,1.6,2.1,1.6H53c1,0,1.9-0.7,2.1-1.6h0L62,28.5h1.8c1.9,0,3.5-1.5,3.5-3.5S65.7,21.6,63.8,21.6z M19.8,49.6
		c0,0.9-0.7,1.6-1.6,1.6c-0.9,0-1.6-0.7-1.6-1.6V36c0-0.9,0.7-1.6,1.6-1.6c0.9,0,1.6,0.7,1.6,1.6V49.6z M29.9,49.6
		c0,0.9-0.7,1.6-1.6,1.6c-0.9,0-1.6-0.7-1.6-1.6V36c0-0.9,0.7-1.6,1.6-1.6c0.9,0,1.6,0.7,1.6,1.6V49.6z M40,49.6
		c0,0.9-0.7,1.6-1.6,1.6c-0.9,0-1.6-0.7-1.6-1.6V36c0-0.9,0.7-1.6,1.6-1.6c0.9,0,1.6,0.7,1.6,1.6V49.6z M50,49.6
		c0,0.9-0.7,1.6-1.6,1.6c-0.9,0-1.6-0.7-1.6-1.6V36c0-0.9,0.7-1.6,1.6-1.6c0.9,0,1.6,0.7,1.6,1.6V49.6z"/>
</g>
</svg>
