<?xml version="1.0" encoding="utf-8"?>
<!-- Generator: Adobe Illustrator 18.1.0, SVG Export Plug-In . SVG Version: 6.00 Build 0)  -->
<svg version="1.1" id="Calque_1" xmlns="http://www.w3.org/2000/svg" xmlns:xlink="http://www.w3.org/1999/xlink" x="0px" y="0px"
	 viewBox="0 0 107.9 107.9" enable-background="new 0 0 107.9 107.9" xml:space="preserve">
<path d="M33.7,20.2v64.2c-3.6-2.2-8.3-3.5-13.5-3.5C9.1,80.9,0,86.9,0,94.4c0,7.4,9.1,13.5,20.2,13.5s20.2-6,20.2-13.5V53.9
	l60.7-20.2v30.5c-3.6-2.2-8.3-3.5-13.5-3.5c-11.2,0-20.2,6-20.2,13.5c0,7.4,9.1,13.5,20.2,13.5s20.2-6,20.2-13.5V0L33.7,20.2z
	 M40.5,47.2V31.9l60.7-16.6V27L40.5,47.2z"/>
</svg>
