<?xml version="1.0" encoding="utf-8"?>
<!-- Generator: Adobe Illustrator 18.1.0, SVG Export Plug-In . SVG Version: 6.00 Build 0)  -->
<svg version="1.1" id="Calque_1" xmlns="http://www.w3.org/2000/svg" xmlns:xlink="http://www.w3.org/1999/xlink" x="0px" y="0px"
	 viewBox="0 0 127.6 141.6" enable-background="new 0 0 127.6 141.6" xml:space="preserve">
<g>
	<g>
		<path d="M126,70.6h-21.4c-0.9,0-1.6-0.7-1.6-1.6l0-23.3c0-1.1-1.1-1.9-2.1-1.5l-16.3,5.2c-0.7,0.2-1.1,0.8-1.1,1.5l0,18.1
			c0,0.9-0.7,1.6-1.6,1.6H60.8c-0.9,0-1.6,0.7-1.6,1.6v16.3c0,0.9,0.7,1.6,1.6,1.6h21.1c0.9,0,1.6,0.7,1.6,1.6v20.7
			c0,1.1,1.1,1.9,2.1,1.5l16.4-5.2c0.7-0.2,1.1-0.8,1.1-1.5L103,91.7c0-0.9,0.7-1.6,1.6-1.6H126c0.9,0,1.6-0.7,1.6-1.6V72.2
			C127.6,71.3,126.9,70.6,126,70.6z"/>
		<path d="M105.1,0.1L51.3,17.7c-1.6,0.5-2.7,2.4-2.7,4.6v56.9L1.9,106.4c-2.5,1.5-2.5,5.2,0,6.6l48.1,28c2.6,1.5,5.8-0.4,5.8-3.3
			V81.7c0-0.1,0-0.2,0-0.3V58.6c0-2.2,1.1-4,2.7-4.6l48.4-15.8c1.6-0.5,2.7-2.4,2.7-4.6V4.7C109.6,1.6,107.4-0.6,105.1,0.1z"/>
	</g>
</g>
</svg>
