<?xml version="1.0" encoding="utf-8"?>
<!-- Generator: Adobe Illustrator 18.1.0, SVG Export Plug-In . SVG Version: 6.00 Build 0)  -->
<svg version="1.1" id="Calque_1" xmlns="http://www.w3.org/2000/svg" xmlns:xlink="http://www.w3.org/1999/xlink" x="0px" y="0px"
	 viewBox="0 0 108.9 120.3" enable-background="new 0 0 108.9 120.3" xml:space="preserve">
<g>
	<path d="M68.8,104.6c0,1.6-1.3,2.9-2.9,2.9H43c-1.6,0-2.9-1.3-2.9-2.9c0-1.6,1.3-2.9,2.9-2.9h22.9C67.5,101.7,68.8,103,68.8,104.6z
		 M65.9,108.9H43c-1.9,0-3.3,1.8-2.7,3.8c0.4,1.2,1.6,1.9,2.8,1.9h0c1.7,0,3.2,0.9,3.9,2.4l0,0.1c1,2,3,3.3,5.3,3.3h4.2
		c2.2,0,4.3-1.3,5.3-3.3l0-0.1c0.7-1.5,2.3-2.4,3.9-2.4h0c1.3,0,2.5-0.7,2.8-1.9C69.2,110.7,67.8,108.9,65.9,108.9z M54.4,17.2
		c1.6,0,2.9-1.3,2.9-2.9V2.9C57.3,1.3,56,0,54.4,0c-1.6,0-2.9,1.3-2.9,2.9v11.5C51.6,15.9,52.9,17.2,54.4,17.2z M24,28.1
		c0.6,0.6,1.3,0.8,2,0.8c0.7,0,1.5-0.3,2-0.8c1.1-1.1,1.1-2.9,0-4.1L20,15.9c-1.1-1.1-2.9-1.1-4.1,0c-1.1,1.1-1.1,2.9,0,4.1L24,28.1
		z M17.2,54.4c0-1.6-1.3-2.9-2.9-2.9H2.9c-1.6,0-2.9,1.3-2.9,2.9c0,1.6,1.3,2.9,2.9,2.9h11.5C15.9,57.3,17.2,56,17.2,54.4z M24,80.8
		l-8.1,8.1c-1.1,1.1-1.1,2.9,0,4.1c0.6,0.6,1.3,0.8,2,0.8c0.7,0,1.5-0.3,2-0.8l8.1-8.1c1.1-1.1,1.1-2.9,0-4.1
		C27,79.7,25.2,79.7,24,80.8z M84.8,80.8c-1.1-1.1-2.9-1.1-4.1,0c-1.1,1.1-1.1,2.9,0,4.1l8.1,8.1c0.6,0.6,1.3,0.8,2,0.8
		c0.7,0,1.5-0.3,2-0.8c1.1-1.1,1.1-2.9,0-4.1L84.8,80.8z M106,51.6H94.6c-1.6,0-2.9,1.3-2.9,2.9s1.3,2.9,2.9,2.9H106
		c1.6,0,2.9-1.3,2.9-2.9C108.9,52.9,107.6,51.6,106,51.6z M82.8,28.9c0.7,0,1.5-0.3,2-0.8l8.1-8.1c1.1-1.1,1.1-2.9,0-4.1
		c-1.1-1.1-2.9-1.1-4.1,0L80.8,24c-1.1,1.1-1.1,2.9,0,4.1C81.3,28.7,82.1,28.9,82.8,28.9z M68.8,97.4c0,1.6-1.3,2.9-2.9,2.9H43
		c-1.6,0-2.9-1.3-2.9-2.9c0-1.5,1.2-2.8,2.7-2.8C41,78.4,24.4,74.9,24.4,55.9c0-16.6,13.5-30.1,30.1-30.1s30.1,13.5,30.1,30.1
		c0,19-16.7,22.6-18.5,38.7C67.6,94.7,68.8,95.9,68.8,97.4z M47.8,33.8c-0.4-1.1-1.7-1.6-2.8-1.2c-7.3,3-12.9,9.3-14.8,17
		c-0.3,1.2,0.4,2.3,1.5,2.6c0.2,0,0.4,0.1,0.5,0.1c1,0,1.8-0.6,2.1-1.6c1.6-6.3,6.2-11.6,12.3-14.1C47.8,36.2,48.3,34.9,47.8,33.8z"
		/>
</g>
</svg>
