<?xml version="1.0" encoding="utf-8"?>
<!-- Generator: Adobe Illustrator 18.1.0, SVG Export Plug-In . SVG Version: 6.00 Build 0)  -->
<svg version="1.1" id="Calque_1" xmlns="http://www.w3.org/2000/svg" xmlns:xlink="http://www.w3.org/1999/xlink" x="0px" y="0px"
	 viewBox="0 0 55.6 51.2" enable-background="new 0 0 55.6 51.2" xml:space="preserve">
<g>
	<rect x="0" y="46" width="17.2" height="5.2"/>
	<rect x="0" y="34.5" width="17.2" height="5.2"/>
	<rect x="0" y="23" width="31" height="5.2"/>
	<rect x="0" y="11.5" width="31" height="5.2"/>
	<rect x="0" y="0" width="31" height="5.2"/>
	<path d="M27.6,50.3c-2.4-0.6-4.5-2.3-5.2-4.7c-0.6-2.3,0.2-4.8,1.7-6.6c2.7-3.4,7.3-5.1,11.6-4.3c0-11.3,0-22.6,0-33.9
		c1,1.5,2.1,3,3.5,4.2c2.9,2.7,6.6,4.4,9.6,6.9c2.6,2.2,4.9,5,6,8.2c0.8,2.3,1,4.9,0.5,7.3c-0.6,3.1-2.6,4.9-4.6,7.3
		c0.7-2.9,1.5-4.9,0.6-7.8c-0.6-2-1.9-3.8-3.5-5.1c-1.9-1.5-4-2.5-6.2-3.5c0,7.5,0,14.9,0,22.4c0.1,2.6-1.2,5-3.1,6.7
		C35.6,50.1,31.4,51.2,27.6,50.3"/>
</g>
</svg>
