<?xml version="1.0" encoding="utf-8"?>
<!-- Generator: Adobe Illustrator 18.1.0, SVG Export Plug-In . SVG Version: 6.00 Build 0)  -->
<svg version="1.1" id="Calque_1" xmlns="http://www.w3.org/2000/svg" xmlns:xlink="http://www.w3.org/1999/xlink" x="0px" y="0px"
	 viewBox="0 0 86.1 100.5" enable-background="new 0 0 86.1 100.5" xml:space="preserve">
<path d="M42,0c14.6,0,26.6,11.8,26.6,26.6c0,14.6-11.9,26.6-26.6,26.6c-14.7,0-26.5-11.9-26.5-26.6C15.4,11.8,27.2,0,42,0L42,0L42,0
	z M20.8,51.9C9.3,51.9,0,61.2,0,72.8v27.8h86.1V72.8c0-11.5-9.3-20.9-20.9-20.9h-5.4c-4.9,3.7-11,5.9-17.6,5.9
	c-6.7,0-12.8-2.2-17.7-5.9L20.8,51.9L20.8,51.9z"/>
</svg>
