<?xml version="1.0" encoding="utf-8"?>
<!-- Generator: Adobe Illustrator 18.1.0, SVG Export Plug-In . SVG Version: 6.00 Build 0)  -->
<svg version="1.1" id="Calque_1" xmlns="http://www.w3.org/2000/svg" xmlns:xlink="http://www.w3.org/1999/xlink" x="0px" y="0px"
	 viewBox="0 0 69.1 50.4" enable-background="new 0 0 69.1 50.4" xml:space="preserve">
<path id="path-1_1_" d="M57.2,6.1v7.2h4.9V38H29.6V32c0-0.7-0.5-1-0.9-0.5l-11.6,8.6c-0.5,0.4-0.5,0.9,0,1.4l11.6,8.6
	c0.5,0.4,0.9,0.3,0.9-0.4v-5H63c1.5,0,3.3-0.5,4.4-1.6c1.1-1.1,1.7-3.1,1.7-4.5V11.8c0-1.4-0.6-2.5-1.7-3.6
	c-1.1-1.1-2.6-1.6-4.1-1.6h-5.8h-0.3V6.1z M39.8,0c-0.2,0.1-0.3,0.3-0.3,0.6v6H6.1c-1.5,0-3.3,0.5-4.4,1.6C0.6,9.3,0,10.4,0,11.8
	v26.8C0,40,0.6,42,1.7,43.1c1.1,1.1,2.6,1.6,4.1,1.6h6.1V38H6.9V13.3h32.6v5.1c0,0.7,0.5,1,0.9,0.5L52,10.3c0.5-0.4,0.5-0.9,0-1.4
	L40.1,0.2C39.8,0,39.6,0,39.4,0H39.8z"/>
</svg>
