<?xml version="1.0" encoding="utf-8"?>
<!-- Generated by IcoMoon.io -->
<!DOCTYPE svg PUBLIC "-//W3C//DTD SVG 1.1//EN" "http://www.w3.org/Graphics/SVG/1.1/DTD/svg11.dtd">
<svg version="1.1" xmlns="http://www.w3.org/2000/svg" xmlns:xlink="http://www.w3.org/1999/xlink" width="512" height="512" viewBox="0 0 512 512">
<g>
</g>
	<path d="M250.809 17.387c69.335 0 126.034 56.197 126.034 126.044 0 69.335-56.688 126.023-126.034 126.023-69.837 0-126.013-56.678-126.013-126.024 0.010-69.837 56.177-126.044 126.013-126.044v0zM377.538 330.087h17.387v33.762h33.751v17.357h-33.751v33.782h-17.387v-33.782h-33.751v-17.357h33.751v-33.762zM150.282 263.629c-54.313 0-98.601 44.339-98.601 99.144v131.84h408.637v-131.84c0-54.805-44.278-99.144-99.134-99.144h-25.825c-23.214 17.418-52.214 27.955-83.323 27.955-31.621 0-60.631-10.537-83.845-27.955h-17.91z" fill="#000000" />
</svg>
