<?xml version="1.0" encoding="utf-8"?>
<!-- Generator: Adobe Illustrator 18.1.0, SVG Export Plug-In . SVG Version: 6.00 Build 0)  -->
<svg version="1.1" id="Calque_1" xmlns="http://www.w3.org/2000/svg" xmlns:xlink="http://www.w3.org/1999/xlink" x="0px" y="0px"
	 viewBox="0 0 89.5 89.7" enable-background="new 0 0 89.5 89.7" xml:space="preserve">
<g>
	<path fill="#C06B27" d="M80.8,44.5C65.8,78,41.3,68.2,41.3,68.2c-19.1-6.3-20-21.5-20-21.5c-2.9-22,12.2-29,12.2-29
		c8.8-3.5,10.5,0.9,10.5,0.9c1.9,3.6-2.4,6.4-2.4,6.4c-4.9,2.8-7.5,8.6-7.5,8.6C28.8,50.8,45,57.7,45,57.7
		c18.9,7.1,28.9-15.8,28.9-15.8c8.2-17.2-1.5-31.5-1.6-31.8C64.5,3.7,54.5-0.2,43.6-0.2c-24.7,0-44.8,20-44.8,44.8
		c0,24.7,20,44.8,44.8,44.8S80.8,44.5,80.8,44.5z"/>
	<path fill="#F6902C" d="M82,21.5c3.9,11.2-1.2,23-1.2,23c-13.3,33-48.9,27.9-48.9,27.9C2.4,68.2-0.7,38.3-0.7,38.3
		s-6.2,41.5,35.8,50.2c30.9,6.4,54-22.3,53.3-43.9C88.1,36.1,87.5,31,82,21.5z"/>
	<path fill="#F6902C" d="M41.6,24.9c-5.7,3.3-7.5,8.6-7.5,8.6C28.8,50.8,45,57.7,45,57.7c18.9,7.1,28.9-15.8,28.9-15.8
		c10.7-19.1-1.5-31.5-1.6-31.8C60-1.6,44.7-0.3,43.7-0.2c0,0,0,0-0.1,0.1C55.1,0.3,58.5,15,43.4,23.5L41.6,24.9z"/>
</g>
</svg>
