<?xml version="1.0" encoding="utf-8"?>
<!-- Generator: Adobe Illustrator 18.1.0, SVG Export Plug-In . SVG Version: 6.00 Build 0)  -->
<svg version="1.1" id="Calque_1" xmlns="http://www.w3.org/2000/svg" xmlns:xlink="http://www.w3.org/1999/xlink" x="0px" y="0px"
	 viewBox="0 0 89.5 89.7" enable-background="new 0 0 89.5 89.7" xml:space="preserve">
<g>
	<path fill="#4B6E32" d="M81.9,44.8c-15,33.5-39.5,23.6-39.5,23.6c-19.1-6.3-20-21.5-20-21.5c-2.9-22,12.2-29,12.2-29
		c8.8-3.5,10.5,0.9,10.5,0.9c1.9,3.6-2.4,6.4-2.4,6.4c-4.9,2.8-7.5,8.6-7.5,8.6C29.9,51.1,46.1,58,46.1,58C65,65.1,75,42.2,75,42.2
		c8.2-17.2-1.5-31.5-1.6-31.8C65.6,4,55.6,0.1,44.8,0.1C20,0.1,0,20.1,0,44.8c0,24.7,20,44.8,44.8,44.8S81.9,44.8,81.9,44.8z"/>
	<path fill="#83C455" d="M83.1,21.8c3.9,11.2-1.2,23-1.2,23C68.6,77.8,33,72.7,33,72.7C3.5,68.5,0.4,38.6,0.4,38.6
		S-5.7,80,36.2,88.8c30.9,6.4,54-22.3,53.3-43.9C89.2,36.4,88.6,31.3,83.1,21.8z"/>
	<path fill="#83C455" d="M42.8,25.2c-5.7,3.3-7.5,8.6-7.5,8.6C29.9,51.1,46.1,58,46.1,58C65,65.1,75,42.2,75,42.2
		c10.7-19.1-1.5-31.5-1.6-31.8C61.2-1.3,45.8,0,44.8,0.1c0,0,0,0-0.1,0.1c11.5,0.4,14.9,15.2-0.2,23.7L42.8,25.2z"/>
</g>
</svg>
