<?xml version="1.0" encoding="utf-8"?>
<!-- Generator: Adobe Illustrator 18.1.0, SVG Export Plug-In . SVG Version: 6.00 Build 0)  -->
<svg version="1.1" id="Calque_1" xmlns="http://www.w3.org/2000/svg" xmlns:xlink="http://www.w3.org/1999/xlink" x="0px" y="0px"
	 viewBox="0 0 89.5 89.7" enable-background="new 0 0 89.5 89.7" xml:space="preserve">
<g>
	<path fill="#52043B" d="M81.7,45.5C66.7,79,42.2,69.2,42.2,69.2c-19.1-6.3-20-21.5-20-21.5c-2.9-22,12.3-29,12.3-29
		c8.8-3.5,10.5,0.9,10.5,0.9c1.9,3.6-2.4,6.4-2.4,6.4c-4.9,2.8-7.5,8.6-7.5,8.6C29.7,51.8,46,58.7,46,58.7
		c18.9,7.1,28.9-15.8,28.9-15.8c8.2-17.2-1.5-31.5-1.6-31.8C65.5,4.7,55.5,0.8,44.6,0.8c-24.7,0-44.8,20-44.8,44.8
		c0,24.7,20,44.8,44.8,44.8S81.7,45.5,81.7,45.5z"/>
	<path fill="#A91861" d="M83,22.5c3.9,11.2-1.2,23-1.2,23c-13.3,33-48.9,27.9-48.9,27.9C3.3,69.2,0.3,39.3,0.3,39.3
		s-6.2,41.5,35.8,50.2c30.9,6.4,54-22.3,53.3-43.9C89,37.1,88.5,32,83,22.5z"/>
	<path fill="#A91861" d="M42.6,25.9c-5.7,3.3-7.5,8.6-7.5,8.6C29.7,51.8,46,58.7,46,58.7c18.9,7.1,28.9-15.8,28.9-15.8
		c10.7-19.1-1.5-31.5-1.6-31.8C61-0.6,45.6,0.7,44.6,0.8c0,0,0,0-0.1,0.1C56.1,1.3,59.5,16,44.3,24.5L42.6,25.9z"/>
</g>
</svg>
