<?xml version="1.0" encoding="utf-8"?>
<!-- Generator: Adobe Illustrator 19.0.0, SVG Export Plug-In . SVG Version: 6.00 Build 0)  -->
<svg version="1.1" id="Layer_1" xmlns="http://www.w3.org/2000/svg" xmlns:xlink="http://www.w3.org/1999/xlink" x="0px" y="0px"
	 viewBox="-41 164.9 512 512" style="enable-background:new -41 164.9 512 512;" xml:space="preserve">
<style type="text/css">
	.st0{fill:#FFFFFF;}
	.st1{fill:none;}
</style>
<g>
	<path class="st0" d="M216.9,675c-42.3,0-84.6-1.1-126.8,0.4c-30.1,1.1-45.9-15.1-53.1-47.4C24.1,570.2,10.4,512.7-2.6,455
		c-3.3-14.8-6.2-27.9-21.6-33.2c-12.6-4.4-19.1-16.8-16.1-32.8c2.9-15.9,13-22.6,26.1-23.5c11-0.8,22.1,0,33.1-0.6
		c13-0.6,19.8,4.5,21.9,21c3.3,26.4,19.1,41.3,41.1,44.7c21.4,3.3,38.7-9.4,47.1-31.1c11.3-29.1,28.8-37.6,54.8-35.1
		c23.7,2.3,47.9,2.4,71.6-0.1c23.4-2.4,34.5,10.8,44.8,32.4c16,33.8,41.8,42.9,66.8,27c10.2-6.5,16.8-16,20.9-28.5
		c3.5-10.8-1.2-28.6,15.3-29.2c19.9-0.8,41-6.9,59.1,7c14.4,11.1,12.3,39.7-5.1,47.1c-17.2,7.3-20.9,21.2-24.7,37.8
		c-12.9,56.6-26.5,113-38.8,169.8c-7.1,32.5-22.4,48.9-52.6,47.7C299.6,673.8,258.2,675,216.9,675z"/>
	<path class="st0" d="M175.5,166.7c18.6-1,32.5,21.6,22.7,42.6c-28.9,61.7-59.6,122.2-90.3,182.7c-7.5,14.7-20.3,18.6-33.5,10.1
		c-13.3-8.6-17.1-23.5-9.9-38.4c29.7-61.2,60.2-121.9,90.7-182.5C159.4,172.6,166.7,167.7,175.5,166.7z"/>
	<path class="st0" d="M369.4,374c-0.9,15.7-6.1,25.7-16.5,30c-12.8,5.4-23.8,0.7-30.9-12.8c-11.5-21.7-22.5-43.9-33.5-66
		c-17.5-35-34.8-70.1-52.3-105c-9.4-18.8-11.8-37.5,6.8-49.6c18-11.7,29.1,2.4,37.5,19.4c27.1,54.4,54.1,108.7,80.9,163.2
		C365.1,360.5,367.4,368.6,369.4,374z"/>
	<path class="st1" d="M188.9,554.2c0,19.1,0.4,38.3-0.2,57.4c-0.2,9.1-3.9,17.1-13.1,16.9c-9.3-0.2-12.4-8.7-12.5-17.6
		c-0.3-38.3-0.3-76.5,0.2-114.8c0.1-9.1,3.9-17.4,13-17c9,0.3,12.3,8.7,12.5,17.7c0.4,19.1,0.1,38.3,0.1,57.4
		C189,554.2,189,554.2,188.9,554.2z"/>
	<path class="st1" d="M109.7,554.2c0,18,0.4,36-0.1,54c-0.3,9.9-2.7,20.2-13.3,20.1c-9-0.1-12.1-9.1-12.2-18
		c-0.3-38.1-0.3-76.2,0.2-114.3c0.1-8.8,3.6-17.5,12.9-16.9c8.9,0.5,12.1,9,12.4,18C110,516.1,109.7,535.2,109.7,554.2z"/>
	<path class="st1" d="M267.4,553.8c0,19.1,0.4,38.1-0.2,57.2c-0.2,9-3.6,17.4-12.7,17.3c-9.1-0.1-12.5-8.6-12.6-17.5
		c-0.4-38.1-0.4-76.3,0.1-114.4c0.1-9.1,4.2-17.3,13-17.4c9.1-0.1,12.2,8.6,12.4,17.6c0.4,19.1,0.1,38.1,0.1,57.2
		C267.5,553.8,267.5,553.8,267.4,553.8z"/>
	<path class="st1" d="M346.8,608.1c-0.2,10-2.8,20.2-13.3,20.2c-8.9,0-12.3-9-12.3-17.9"/>
</g>
<path class="st1" d="M351.2,553.8c0,19.1,0.4,38.1-0.2,57.2c-0.2,9-3.6,17.4-12.7,17.3c-9.1-0.1-12.5-8.6-12.6-17.5
	c-0.4-38.1-0.4-76.3,0.1-114.4c0.1-9.1,4.2-17.3,13-17.4c9.1-0.1,12.2,8.6,12.4,17.6c0.4,19.1,0.1,38.1,0.1,57.2
	C351.3,553.8,351.2,553.8,351.2,553.8z"/>
</svg>
